<svg width="21" height="16" viewBox="0 0 21 16" fill="none" xmlns="http://www.w3.org/2000/svg">
<path d="M9.00046 0C13.9713 0 18 3.58173 18 7.99959C18 12.4174 13.9713 15.9992 9.00046 15.9992C7.47445 15.9992 6.00323 15.6604 4.69634 15.0267L0.999483 15.9727C0.865065 16.0072 0.72271 16.009 0.587238 15.978C0.451767 15.9469 0.328133 15.8842 0.229209 15.7963C0.130285 15.7083 0.0596885 15.5984 0.0247694 15.478C-0.0101497 15.3576 -0.00811452 15.2311 0.0306632 15.1116L1.09652 11.8276C0.375588 10.6536 -0.0011928 9.3371 0.000925527 7.99959C0.000925527 3.58173 4.03115 0 9.00046 0ZM9.58661 9.04301H6.06505L5.98601 9.04788C5.84553 9.06506 5.7168 9.12687 5.62361 9.22188C5.53042 9.31689 5.47908 9.43868 5.47908 9.56473C5.47908 9.69077 5.53042 9.81256 5.62361 9.90757C5.7168 10.0026 5.84553 10.0644 5.98601 10.0816L6.06505 10.0864H9.58582L9.66486 10.0816C9.80534 10.0644 9.93408 10.0026 10.0273 9.90757C10.1204 9.81256 10.1718 9.69077 10.1718 9.56473C10.1718 9.43868 10.1204 9.31689 10.0273 9.22188C9.93408 9.12687 9.80534 9.06506 9.66486 9.04788L9.58582 9.04301H9.58661ZM11.939 5.91274H6.06505L5.98601 5.91761C5.84553 5.93479 5.7168 5.9966 5.62361 6.09161C5.53042 6.18662 5.47908 6.3084 5.47908 6.43445C5.47908 6.5605 5.53042 6.68229 5.62361 6.7773C5.7168 6.8723 5.84553 6.93411 5.98601 6.95129L6.06505 6.95616H11.9382L12.018 6.95129C12.1585 6.93411 12.2873 6.8723 12.3804 6.7773C12.4736 6.68229 12.525 6.5605 12.525 6.43445C12.525 6.3084 12.4736 6.18662 12.3804 6.09161C12.2873 5.9966 12.1585 5.93479 12.018 5.91761L11.939 5.91274Z" fill="#121212"/>
<path d="M19.0608 3.55556C19.0608 4.94588 17.9018 6.11111 16.4244 6.11111C14.9471 6.11111 13.7881 4.94588 13.7881 3.55556C13.7881 2.16523 14.9471 1 16.4244 1C17.9018 1 19.0608 2.16523 19.0608 3.55556Z" fill="#121212" stroke="white" stroke-width="2"/>
</svg>
