<svg width="119" height="140" viewBox="0 0 119 140" fill="none" xmlns="http://www.w3.org/2000/svg">
<path d="M59.5 0C75.2804 0 90.4144 6.32141 101.573 17.5736C112.731 28.8258 119 44.087 119 60C119 84.84 101.224 110.867 64.4667 138.667C63.3223 139.532 60.9304 140 59.5 140C58.0696 140 55.6777 139.532 54.5333 138.667C17.7756 110.867 0 84.84 0 60C0 44.087 6.26873 28.8258 17.4271 17.5736C28.5856 6.32141 43.7196 0 59.5 0ZM59.5 40C54.2399 40 49.1952 42.1071 45.4757 45.8579C41.7562 49.6086 39.6667 54.6957 39.6667 60C39.6667 65.3043 41.7562 70.3914 45.4757 74.1421C49.1952 77.8929 54.2399 80 59.5 80C64.7601 80 69.8048 77.8929 73.5243 74.1421C77.2438 70.3914 79.3333 65.3043 79.3333 60C79.3333 54.6957 77.2438 49.6086 73.5243 45.8579C69.8048 42.1071 64.7601 40 59.5 40Z" fill="#946EDB"/>
</svg>
