<svg width="12" height="16" viewBox="0 0 12 16" fill="none" xmlns="http://www.w3.org/2000/svg">
<path fill-rule="evenodd" clip-rule="evenodd" d="M5.99982 3.87402C6.44737 3.87402 6.87659 3.69623 7.19306 3.37977C7.50953 3.0633 7.68732 2.63408 7.68732 2.18652C7.68732 1.73897 7.50953 1.30975 7.19306 0.993281C6.87659 0.676813 6.44737 0.499023 5.99982 0.499023C5.55227 0.499023 5.12304 0.676813 4.80658 0.993281C4.49011 1.30975 4.31232 1.73897 4.31232 2.18652C4.31232 2.63408 4.49011 3.0633 4.80658 3.37977C5.12304 3.69623 5.55227 3.87402 5.99982 3.87402V3.87402ZM11.2198 4.78902C11.2755 4.97998 11.2531 5.18524 11.1574 5.35965C11.0618 5.53406 10.9008 5.66333 10.7098 5.71902C9.81882 5.97852 9.01407 6.17427 8.24982 6.3044V14.749C8.25004 14.9422 8.17572 15.128 8.04233 15.2678C7.90894 15.4075 7.72677 15.4904 7.53379 15.4991C7.34081 15.5079 7.15189 15.4418 7.0064 15.3147C6.86092 15.1876 6.77008 15.0093 6.75282 14.8169L6.37782 10.6919C6.37579 10.6693 6.37479 10.6467 6.37482 10.624H5.62482C5.62485 10.6467 5.62384 10.6693 5.62182 10.6919L5.24682 14.8169C5.22956 15.0093 5.13872 15.1876 4.99323 15.3147C4.84775 15.4418 4.65883 15.5079 4.46585 15.4991C4.27287 15.4904 4.0907 15.4075 3.95731 15.2678C3.82392 15.128 3.7496 14.9422 3.74982 14.749V6.29052C2.98744 6.15927 2.18569 5.96765 1.29919 5.72165C1.20337 5.69613 1.11357 5.65187 1.03497 5.59142C0.956365 5.53097 0.890531 5.45554 0.841273 5.36948C0.792015 5.28342 0.760311 5.18845 0.747995 5.09006C0.735679 4.99167 0.742996 4.89181 0.769522 4.79627C0.796049 4.70073 0.841257 4.61139 0.902534 4.53343C0.96381 4.45547 1.03994 4.39044 1.12651 4.34209C1.21308 4.29375 1.30838 4.26305 1.4069 4.25177C1.50541 4.24049 1.60519 4.24887 1.70044 4.2764C3.42844 4.75565 4.72669 4.9934 6.00319 4.99902C7.27669 5.00465 8.57194 4.77965 10.2898 4.27902C10.4808 4.22333 10.686 4.24577 10.8604 4.34141C11.0349 4.43706 11.1641 4.59807 11.2198 4.78902V4.78902Z" fill="#121212"/>
</svg>
