<svg width="20" height="27" viewBox="0 0 20 27" fill="none" xmlns="http://www.w3.org/2000/svg">
<path d="M18 12.3C18 14.5278 17.1571 16.6644 15.6569 18.2397C14.1566 19.815 12.1217 20.7 10 20.7M10 20.7C7.87827 20.7 5.84344 19.815 4.34315 18.2397C2.84285 16.6644 2 14.5278 2 12.3M10 20.7V25.5M10 25.5H5.42857M10 25.5H14.5714M10 15.9C9.09069 15.9 8.21862 15.5207 7.57563 14.8456C6.93265 14.1705 6.57143 13.2548 6.57143 12.3V5.1C6.57143 4.14522 6.93265 3.22955 7.57563 2.55442C8.21862 1.87928 9.09069 1.5 10 1.5C10.9093 1.5 11.7814 1.87928 12.4244 2.55442C13.0673 3.22955 13.4286 4.14522 13.4286 5.1V12.3C13.4286 13.2548 13.0673 14.1705 12.4244 14.8456C11.7814 15.5207 10.9093 15.9 10 15.9Z" stroke="#121212" stroke-width="3" stroke-linecap="round" stroke-linejoin="round"/>
</svg>
