<svg width="21" height="25" viewBox="0 0 21 25" fill="none" xmlns="http://www.w3.org/2000/svg">
<path d="M10.5 0C16.2992 0 21 4.60627 21 10.2889C21 14.6366 17.8823 19.3748 11.7277 24.5541C11.3855 24.8422 10.9491 25.0004 10.498 25C10.0468 24.9996 9.61078 24.8406 9.26908 24.552L8.862 24.2059C2.97985 19.1616 0 14.5396 0 10.2889C0 4.60627 4.70077 0 10.5 0ZM10.5 6.33164C9.42893 6.33164 8.40174 6.74857 7.64438 7.4907C6.88702 8.23283 6.46154 9.23938 6.46154 10.2889C6.46154 11.3384 6.88702 12.345 7.64438 13.0871C8.40174 13.8293 9.42893 14.2462 10.5 14.2462C11.5711 14.2462 12.5983 13.8293 13.3556 13.0871C14.113 12.345 14.5385 11.3384 14.5385 10.2889C14.5385 9.23938 14.113 8.23283 13.3556 7.4907C12.5983 6.74857 11.5711 6.33164 10.5 6.33164Z" fill="#121212"/>
</svg>
