<svg width="10" height="8" viewBox="0 0 10 8" fill="none" xmlns="http://www.w3.org/2000/svg">
<path d="M8.341 0.591052C8.49948 0.440177 8.71037 0.356767 8.92917 0.358423C9.14797 0.360078 9.35758 0.44667 9.51375 0.599926C9.66993 0.753181 9.76046 0.961114 9.76624 1.17985C9.77202 1.39858 9.69261 1.61101 9.54475 1.7723L5.056 7.38606C4.97882 7.46919 4.88566 7.53591 4.7821 7.58222C4.67854 7.62853 4.56671 7.65348 4.45328 7.65558C4.33986 7.65768 4.22718 7.63689 4.12198 7.59444C4.01677 7.552 3.92121 7.48878 3.841 7.40856L0.86425 4.4318C0.781352 4.35456 0.714862 4.26141 0.668747 4.15791C0.622631 4.05441 0.597833 3.94268 0.595834 3.82939C0.593836 3.7161 0.614676 3.60357 0.657112 3.49851C0.699548 3.39344 0.762711 3.29801 0.842832 3.21789C0.922953 3.13776 1.01839 3.0746 1.12345 3.03217C1.22851 2.98973 1.34105 2.96889 1.45434 2.97089C1.56763 2.97289 1.67936 2.99768 1.78286 3.0438C1.88635 3.08992 1.97951 3.15641 2.05675 3.2393L4.4125 5.59393L8.31963 0.615802C8.32666 0.607141 8.33417 0.598878 8.34212 0.591052H8.341Z" fill="#121212"/>
</svg>
