<svg width="11" height="13" viewBox="0 0 11 13" fill="none" xmlns="http://www.w3.org/2000/svg">
<path d="M5.5 0C8.53769 0 11 2.39526 11 5.35023C11 7.61105 9.36692 10.0749 6.14308 12.7681C5.96382 12.9179 5.73526 13.0002 5.49894 13C5.26262 12.9998 5.03422 12.9171 4.85523 12.767L4.642 12.587C1.56087 9.96406 0 7.56057 0 5.35023C0 2.39526 2.46231 0 5.5 0ZM5.5 3.29245C4.93897 3.29245 4.40091 3.50925 4.0042 3.89516C3.60749 4.28107 3.38462 4.80448 3.38462 5.35023C3.38462 5.89599 3.60749 6.4194 4.0042 6.80531C4.40091 7.19122 4.93897 7.40802 5.5 7.40802C6.06104 7.40802 6.59909 7.19122 6.9958 6.80531C7.39252 6.4194 7.61539 5.89599 7.61539 5.35023C7.61539 4.80448 7.39252 4.28107 6.9958 3.89516C6.59909 3.50925 6.06104 3.29245 5.5 3.29245Z" fill="#121212"/>
</svg>
