<svg width="26" height="24" viewBox="0 0 26 24" fill="none" xmlns="http://www.w3.org/2000/svg">
<path d="M13.0007 0C20.1808 0 26 5.37259 26 11.9994C26 18.6262 20.1808 23.9988 13.0007 23.9988C10.7964 23.9988 8.67133 23.4906 6.7836 22.5401L1.4437 23.9591C1.24954 24.0108 1.04391 24.0135 0.848233 23.967C0.652552 23.9204 0.47397 23.8263 0.331079 23.6944C0.188189 23.5625 0.0862167 23.3976 0.035778 23.217C-0.0146607 23.0364 -0.011721 22.8466 0.0442913 22.6674L1.58386 17.7413C0.542516 15.9803 -0.00172294 14.0057 0.00133687 11.9994C0.00133687 5.37259 5.82278 0 13.0007 0ZM13.8473 13.5645H8.76063L8.64646 13.5718C8.44354 13.5976 8.25759 13.6903 8.12299 13.8328C7.98839 13.9753 7.91423 14.158 7.91423 14.3471C7.91423 14.5362 7.98839 14.7188 8.12299 14.8614C8.25759 15.0039 8.44354 15.0966 8.64646 15.1224L8.76063 15.1297H13.8462L13.9604 15.1224C14.1633 15.0966 14.3492 15.0039 14.4838 14.8614C14.6184 14.7188 14.6926 14.5362 14.6926 14.3471C14.6926 14.158 14.6184 13.9753 14.4838 13.8328C14.3492 13.6903 14.1633 13.5976 13.9604 13.5718L13.8462 13.5645H13.8473ZM17.2452 8.86911H8.76063L8.64646 8.87641C8.44354 8.90218 8.25759 8.9949 8.12299 9.13741C7.98839 9.27993 7.91423 9.46261 7.91423 9.65168C7.91423 9.84075 7.98839 10.0234 8.12299 10.1659C8.25759 10.3085 8.44354 10.4012 8.64646 10.4269L8.76063 10.4342H17.2441L17.3594 10.4269C17.5623 10.4012 17.7483 10.3085 17.8829 10.1659C18.0175 10.0234 18.0916 9.84075 18.0916 9.65168C18.0916 9.46261 18.0175 9.27993 17.8829 9.13741C17.7483 8.9949 17.5623 8.90218 17.3594 8.87641L17.2452 8.86911Z" fill="#121212"/>
</svg>
