<svg width="15" height="8" viewBox="0 0 15 8" fill="none" xmlns="http://www.w3.org/2000/svg">
<path d="M8.091 0.591054C8.24947 0.440179 8.46036 0.35677 8.67917 0.358425C8.89797 0.360081 9.10758 0.446672 9.26375 0.599928C9.41992 0.753184 9.51046 0.961116 9.51624 1.17985C9.52202 1.39858 9.44261 1.61101 9.29475 1.7723L4.806 7.38606C4.72881 7.46919 4.63566 7.53591 4.5321 7.58222C4.42854 7.62853 4.3167 7.65348 4.20328 7.65558C4.08986 7.65768 3.97718 7.63689 3.87198 7.59444C3.76677 7.552 3.67121 7.48878 3.591 7.40856L0.61425 4.43181C0.531352 4.35456 0.464862 4.26141 0.418746 4.15791C0.37263 4.05441 0.347833 3.94268 0.345834 3.82939C0.343836 3.7161 0.364676 3.60357 0.407112 3.49851C0.449548 3.39345 0.512711 3.29801 0.592832 3.21789C0.672953 3.13777 0.768391 3.0746 0.873452 3.03217C0.978514 2.98973 1.09105 2.96889 1.20434 2.97089C1.31763 2.97289 1.42936 2.99769 1.53286 3.0438C1.63635 3.08992 1.7295 3.15641 1.80675 3.23931L4.1625 5.59393L8.0685 0.615805C8.0755 0.607119 8.08302 0.598854 8.091 0.591054ZM7.056 6.37356L8.091 7.40856C8.17119 7.4886 8.26668 7.55168 8.37178 7.59402C8.47688 7.63636 8.58943 7.6571 8.70271 7.655C8.816 7.6529 8.9277 7.628 9.03116 7.5818C9.13461 7.53559 9.2277 7.46902 9.30487 7.38606L13.7959 1.7723C13.8765 1.69266 13.9403 1.59757 13.9835 1.49271C14.0266 1.38786 14.0481 1.2754 14.0468 1.16204C14.0455 1.04868 14.0213 0.936746 13.9758 0.832927C13.9302 0.729109 13.8642 0.635533 13.7817 0.557787C13.6992 0.480042 13.6019 0.419721 13.4955 0.380427C13.3892 0.341134 13.276 0.323673 13.1628 0.329088C13.0495 0.334503 12.9386 0.362684 12.8364 0.411945C12.7343 0.461207 12.6432 0.53054 12.5685 0.615805L8.66137 5.59393L8.11575 5.04718L7.05487 6.37356H7.056Z" fill="#121212"/>
</svg>
