<svg width="41" height="27" viewBox="0 0 41 27" fill="none" xmlns="http://www.w3.org/2000/svg">
<path fill-rule="evenodd" clip-rule="evenodd" d="M8.66629 20.7397C8.80019 20.7397 8.93204 20.7309 9.0613 20.7139L16.1308 26.3419C18.0963 27.9066 20.9993 26.507 20.9993 23.9948V3.00562C20.9993 0.493429 18.0963 -0.906121 16.1308 0.658548L9.0601 6.28753C8.93122 6.27063 8.79978 6.26191 8.66629 6.26191H3C1.34315 6.26191 0 7.60506 0 9.26192V17.7397C0 19.3965 1.34315 20.7397 3 20.7397H8.66629ZM26.417 9.23764C25.8636 8.67888 25.8636 7.77295 26.417 7.21419C26.9704 6.65543 27.8676 6.65543 28.4209 7.21419L33.5014 12.3441L38.581 7.21508C39.1344 6.65632 40.0316 6.65632 40.585 7.21508C41.1383 7.77384 41.1383 8.67977 40.585 9.23853L35.5054 14.3676L40.4446 19.3549C40.998 19.9137 40.998 20.8196 40.4446 21.3783C39.8912 21.9371 38.994 21.9371 38.4406 21.3783L33.5014 16.391L28.5613 21.3792C28.0079 21.938 27.1107 21.938 26.5574 21.3792C26.004 20.8205 26.004 19.9145 26.5574 19.3558L31.4975 14.3676L26.417 9.23764Z" fill="white"/>
</svg>
