<svg width="14" height="13" viewBox="0 0 14 13" fill="none" xmlns="http://www.w3.org/2000/svg">
<path fill-rule="evenodd" clip-rule="evenodd" d="M10.8889 2.29412C10.8889 1.68568 10.6431 1.10216 10.2055 0.671932C9.76789 0.241701 9.17439 0 8.55556 0H5.44444C4.82561 0 4.23211 0.241701 3.79453 0.671932C3.35694 1.10216 3.11111 1.68568 3.11111 2.29412H2.33333C1.71449 2.29412 1.121 2.53582 0.683418 2.96605C0.245833 3.39628 0 3.9798 0 4.58824V10.7059C0 11.3143 0.245833 11.8978 0.683418 12.3281C1.121 12.7583 1.71449 13 2.33333 13H11.6667C12.2855 13 12.879 12.7583 13.3166 12.3281C13.7542 11.8978 14 11.3143 14 10.7059V4.58824C14 3.9798 13.7542 3.39628 13.3166 2.96605C12.879 2.53582 12.2855 2.29412 11.6667 2.29412H10.8889ZM8.55556 1.5H5.44444C5.23816 1.5 5.04033 1.58057 4.89447 1.72398C4.74861 1.86739 4.66667 2.09131 4.66667 2.29412H9.33333C9.33333 2.09131 9.25139 1.86739 9.10553 1.72398C8.95967 1.58057 8.76184 1.5 8.55556 1.5Z" fill="#121212"/>
</svg>
