<svg width="26" height="18" viewBox="0 0 26 18" fill="none" xmlns="http://www.w3.org/2000/svg">
<path fill-rule="evenodd" clip-rule="evenodd" d="M5.41076 11.826C5.0078 11.6444 4.55602 11.6013 4.12601 11.7036L2.73942 12.0335L2.95965 11.4027C3.16539 10.8134 3.08423 10.1618 2.7402 9.64106C2.24059 8.88473 1.99954 8.07052 2.0009 7.26973V7.26632C2.0009 4.69818 4.66939 2 8.79451 2C12.9209 2 15.5881 4.69798 15.5881 7.26632C15.5881 9.83467 12.9209 12.5326 8.79451 12.5326C7.57652 12.5326 6.42018 12.281 5.41076 11.826ZM1.95149 14.2767L1.95664 14.2755L4.58887 13.6493C5.86586 14.2249 7.30342 14.5326 8.79451 14.5326C13.6516 14.5326 17.5881 11.2792 17.5881 7.26632C17.5881 3.25342 13.6516 0 8.79451 0C3.93891 0 0.000904344 3.25342 0.000904344 7.26632C-0.00116552 8.48124 0.366993 9.67702 1.07143 10.7434L0.0299616 13.7264C-0.00792884 13.8349 -0.0099175 13.9499 0.0242026 14.0593C0.0583227 14.1686 0.127304 14.2685 0.223964 14.3483C0.320624 14.4282 0.441429 14.4852 0.573801 14.5134C0.706172 14.5416 0.84527 14.5399 0.976612 14.5086L1.74612 14.3256L1.74616 14.3256L1.95149 14.2767ZM19.657 7.78535C19.657 6.19469 19.1499 4.7154 18.2795 3.4828C22.59 3.73424 25.9991 6.8843 25.9991 10.7329C26.0011 11.9479 25.6546 13.1436 24.9916 14.21L25.9718 17.193C26.0075 17.3015 26.0093 17.4165 25.9772 17.5259C25.9451 17.6352 25.8802 17.7351 25.7892 17.8149C25.6982 17.8948 25.5845 17.9518 25.46 17.98C25.3354 18.0082 25.2045 18.0066 25.0808 17.9753L21.6811 17.1159C20.4792 17.6915 19.1262 17.9993 17.7228 17.9993C15.267 17.9993 13.0613 17.0604 11.5457 15.5692C16.0409 15.4865 19.657 12.0331 19.657 7.78535Z" fill="#121212"/>
</svg>
