<svg width="18" height="18" viewBox="0 0 18 18" fill="none" xmlns="http://www.w3.org/2000/svg">
<path d="M12.384 1.21623C12.9675 0.632659 13.7589 0.304769 14.5841 0.304688C15.4094 0.304606 16.2008 0.632339 16.7844 1.21579C17.368 1.79924 17.6959 2.59062 17.696 3.41582C17.6961 4.24103 17.3683 5.03247 16.7849 5.61604L16.0092 6.39165L11.6093 1.99184L12.384 1.21623ZM10.6875 2.91354L1.99194 11.608C1.63858 11.9614 1.39024 12.406 1.27455 12.8922L0.322388 16.8929C0.296607 17.0013 0.299024 17.1145 0.329409 17.2217C0.359794 17.3289 0.417133 17.4265 0.495959 17.5052C0.574784 17.584 0.672467 17.6412 0.779691 17.6715C0.886916 17.7017 1.00011 17.704 1.10847 17.6781L5.1093 16.726C5.59566 16.6101 6.04029 16.3615 6.39364 16.0078L15.0875 7.31509L10.6866 2.91354H10.6875Z" fill="#121212"/>
</svg>
