<svg width="21" height="26" viewBox="0 0 21 26" fill="none" xmlns="http://www.w3.org/2000/svg">
<path d="M10.0227 25.9996C11.3114 25.9996 12.4568 25.1639 12.7432 23.9103C12.8864 23.4924 12.6 23.2139 12.1705 23.2139H7.875C7.44545 23.2139 7.15909 23.4924 7.30227 23.9103C7.58864 25.1639 8.73409 25.9996 10.0227 25.9996ZM2.86364 10.6782C2.86364 6.77815 6.01364 3.71387 10.0227 3.71387C14.0318 3.71387 17.1818 6.77815 17.1818 10.6782V14.8567L19.6159 18.4782C19.9023 18.7567 20.0455 19.1746 20.0455 19.5924C20.0455 20.7067 19.0432 21.6817 17.8977 21.6817H2.14773C1.00227 21.821 0 20.846 0 19.7317C0 19.3139 0.143182 18.896 0.429545 18.6174L2.86364 14.996V10.6782Z" fill="#121212"/>
</svg>
