<svg width="19" height="19" viewBox="0 0 19 19" fill="none" xmlns="http://www.w3.org/2000/svg">
<path fill-rule="evenodd" clip-rule="evenodd" d="M10.9996 1.82617C10.9996 0.997745 10.3281 0.326172 9.49964 0.326172C8.67121 0.326172 7.99964 0.997745 7.99964 1.82617V7.99925H1.82617C0.997745 7.99925 0.326172 8.67082 0.326172 9.49925C0.326172 10.3277 0.997745 10.9992 1.82617 10.9992H7.99966L7.99976 17.1731C7.99977 18.0016 8.67135 18.6731 9.49978 18.6731C10.3282 18.6731 10.9998 18.0015 10.9998 17.1731L10.9997 10.9993L17.173 10.9996C18.0015 10.9997 18.6731 10.3281 18.6731 9.49972C18.6732 8.67129 18.0016 7.99969 17.1732 7.99964L10.9996 7.99932V1.82617Z" fill="#6EDB9A"/>
</svg>
