<svg width="28" height="20" viewBox="0 0 28 20" fill="none" xmlns="http://www.w3.org/2000/svg">
<path fill-rule="evenodd" clip-rule="evenodd" d="M15.638 2.85964C15.9272 2.02346 16.4636 1.29938 17.1732 0.78721C17.8828 0.275041 18.7307 0 19.6 0C20.4693 0 21.3172 0.275041 22.0268 0.78721C22.7364 1.29938 23.2728 2.02346 23.562 2.85964H26.6C26.9713 2.85964 27.3274 3.0101 27.59 3.27792C27.8525 3.54573 28 3.90897 28 4.28771C28 4.66646 27.8525 5.0297 27.59 5.29751C27.3274 5.56533 26.9713 5.71579 26.6 5.71579H23.562C23.2728 6.55197 22.7364 7.27605 22.0268 7.78822C21.3172 8.30039 20.4693 8.57543 19.6 8.57543C18.7307 8.57543 17.8828 8.30039 17.1732 7.78822C16.4636 7.27605 15.9272 6.55197 15.638 5.71579H1.4C1.0287 5.71579 0.672601 5.56533 0.41005 5.29751C0.1475 5.0297 0 4.66646 0 4.28771C0 3.90897 0.1475 3.54573 0.41005 3.27792C0.672601 3.0101 1.0287 2.85964 1.4 2.85964H15.638ZM4.438 14.2842C4.72724 13.448 5.26363 12.724 5.97324 12.2118C6.68284 11.6996 7.53072 11.4246 8.4 11.4246C9.26928 11.4246 10.1172 11.6996 10.8268 12.2118C11.5364 12.724 12.0728 13.448 12.362 14.2842H26.6C26.9713 14.2842 27.3274 14.4347 27.59 14.7025C27.8525 14.9703 28 15.3335 28 15.7123C28 16.091 27.8525 16.4543 27.59 16.7221C27.3274 16.9899 26.9713 17.1404 26.6 17.1404H12.362C12.0728 17.9765 11.5364 18.7006 10.8268 19.2128C10.1172 19.725 9.26928 20 8.4 20C7.53072 20 6.68284 19.725 5.97324 19.2128C5.26363 18.7006 4.72724 17.9765 4.438 17.1404H1.4C1.0287 17.1404 0.672601 16.9899 0.41005 16.7221C0.1475 16.4543 0 16.091 0 15.7123C0 15.3335 0.1475 14.9703 0.41005 14.7025C0.672601 14.4347 1.0287 14.2842 1.4 14.2842H4.438ZM19.6 5.71579C19.9713 5.71579 20.3274 5.56533 20.59 5.29751C20.8525 5.0297 21 4.66646 21 4.28771C21 3.90897 20.8525 3.54573 20.59 3.27792C20.3274 3.0101 19.9713 2.85964 19.6 2.85964C19.2287 2.85964 18.8726 3.0101 18.6101 3.27792C18.3475 3.54573 18.2 3.90897 18.2 4.28771C18.2 4.66646 18.3475 5.0297 18.6101 5.29751C18.8726 5.56533 19.2287 5.71579 19.6 5.71579ZM8.4 17.1404C8.7713 17.1404 9.1274 16.9899 9.38995 16.7221C9.6525 16.4543 9.8 16.091 9.8 15.7123C9.8 15.3335 9.6525 14.9703 9.38995 14.7025C9.1274 14.4347 8.7713 14.2842 8.4 14.2842C8.0287 14.2842 7.6726 14.4347 7.41005 14.7025C7.1475 14.9703 7 15.3335 7 15.7123C7 16.091 7.1475 16.4543 7.41005 16.7221C7.6726 16.9899 8.0287 17.1404 8.4 17.1404Z" fill="#121212"/>
</svg>
