<svg width="21" height="21" viewBox="0 0 21 21" fill="none" xmlns="http://www.w3.org/2000/svg">
<path fill-rule="evenodd" clip-rule="evenodd" d="M14.1215 8.45123C14.1215 11.4256 11.6684 13.9025 8.56077 13.9025C5.4531 13.9025 3 11.4256 3 8.45123C3 5.4769 5.4531 3 8.56077 3C11.6684 3 14.1215 5.4769 14.1215 8.45123ZM13.1303 15.5991C11.808 16.4246 10.2409 16.9025 8.56077 16.9025C3.83279 16.9025 0 13.1187 0 8.45123C0 3.78374 3.83279 0 8.56077 0C13.2887 0 17.1215 3.78374 17.1215 8.45123C17.1215 10.452 16.4173 12.2903 15.2402 13.7379C15.2732 13.7634 15.3054 13.7904 15.3366 13.8191L20.5571 18.6209C21.1334 19.1509 21.1489 20.0265 20.5917 20.5766C20.0345 21.1267 19.1156 21.1429 18.5393 20.6129L13.3188 15.8111C13.2473 15.7453 13.1845 15.6742 13.1303 15.5991Z" fill="#121212"/>
</svg>
