<svg width="20" height="20" viewBox="0 0 20 20" fill="none" xmlns="http://www.w3.org/2000/svg">
<path d="M17.0847 9.99751V9.94849C17.0867 8.59761 16.6869 7.27633 15.9357 6.15103L15.9515 6.17679L6.1336 15.93C7.27229 16.6856 8.61121 17.087 9.97993 17.0832H10.0016H10.0008H10.025C10.9801 17.0843 11.9248 16.8865 12.7983 16.5025L12.7549 16.5199C15.3219 15.4274 17.0872 12.9359 17.0872 10.0341V9.99668V9.99834L17.0847 9.99751ZM4.07765 13.8706L13.9089 4.10318C12.7763 3.33118 11.4347 2.91978 10.0618 2.92349H9.99997H10.0033H9.94987C8.70641 2.92159 7.48558 3.25429 6.41669 3.88635L6.44842 3.8689C4.324 5.12337 2.92191 7.3947 2.92191 9.99086C2.92191 11.4331 3.35448 12.7756 4.09769 13.8955L4.08099 13.8689L4.07765 13.8706ZM19.9991 9.99751V10.0266C19.9991 11.4206 19.7068 12.7457 19.1799 13.9462L19.205 13.883C17.6668 17.5052 14.1261 20 9.99914 20C5.87222 20 2.33152 17.5044 0.81837 13.9478L0.794152 13.883C0.292275 12.7374 0 11.4032 0 10C0 8.59683 0.292275 7.26261 0.819205 6.053L0.794152 6.11697C2.33235 2.49481 5.87305 0 9.99997 0C14.1269 0 17.6676 2.49564 19.1807 6.05217L19.205 6.11697C19.7335 7.33123 20.0042 8.64105 20 9.96428V9.99834V9.99668L19.9991 9.99751Z" fill="#EB5050"/>
</svg>
