<svg width="22" height="26" viewBox="0 0 22 26" fill="none" xmlns="http://www.w3.org/2000/svg">
<path d="M9.2024 0.244521C9.32836 0.143124 9.47558 0.0705102 9.63346 0.0319093C9.79133 -0.00669168 9.95593 -0.0103186 10.1154 0.0212896L21.1154 2.18858C21.3647 2.23767 21.589 2.37029 21.7502 2.56389C21.9114 2.7575 21.9996 3.00014 21.9998 3.25056V22.7497C21.9996 23.0001 21.9114 23.2428 21.7502 23.4364C21.589 23.63 21.3647 23.7626 21.1154 23.8117L10.1154 25.979C9.95588 26.0104 9.79127 26.0066 9.63343 25.9677C9.47559 25.9289 9.32846 25.8561 9.20262 25.7545C9.07679 25.653 8.97539 25.5252 8.90574 25.3803C8.83608 25.2355 8.7999 25.0773 8.7998 24.917V1.08326L9.2024 0.244521ZM15.3998 12.9991C15.3998 12.7116 15.2839 12.436 15.0776 12.2328C14.8713 12.0296 14.5915 11.9154 14.2998 11.9154C14.0081 11.9154 13.7283 12.0296 13.522 12.2328C13.3157 12.436 13.1998 12.7116 13.1998 12.9991C13.1998 13.2865 13.3157 13.5621 13.522 13.7653C13.7283 13.9685 14.0081 14.0827 14.2998 14.0827C14.5915 14.0827 14.8713 13.9685 15.0776 13.7653C15.2839 13.5621 15.3998 13.2865 15.3998 12.9991Z" fill="#121212"/>
<path d="M6.59999 2.16699H1.1C0.808261 2.16699 0.528472 2.28116 0.322182 2.48439C0.115893 2.68761 0 2.96324 0 3.25064V22.7498C0 23.0372 0.115893 23.3128 0.322182 23.516C0.528472 23.7193 0.808261 23.8334 1.1 23.8334H6.59999V2.16699Z" fill="#121212"/>
<path d="M9.2024 0.244141C9.07645 0.345835 8.975 0.473805 8.90538 0.618811C8.83576 0.763817 8.7997 0.92224 8.7998 1.08264L9.2024 0.244141Z" fill="#121212"/>
</svg>
