<svg width="23" height="25" viewBox="0 0 23 25" fill="none" xmlns="http://www.w3.org/2000/svg">
<path d="M11.854 8.46347L7.79084 13.0282C7.3598 13.5125 7.10986 14.1605 7.09601 14.8298C7.08215 15.4991 7.30552 16.1348 7.71697 16.597C8.12842 17.0592 8.69425 17.3102 9.28998 17.2946C9.88571 17.2791 10.4625 16.9983 10.8936 16.514L16.5819 10.1234C17.444 9.15486 17.9439 7.85876 17.9716 6.52021C17.9993 5.18165 17.5526 3.91029 16.7297 2.9858C15.9068 2.06131 14.7751 1.55942 13.5837 1.59055C12.3922 1.62168 11.2385 2.18327 10.3765 3.15179L3.87548 10.4554C2.58235 11.9081 1.83253 13.8523 1.79097 15.8601C1.74941 17.8679 2.41951 19.775 3.65385 21.1617C4.8882 22.5485 6.58569 23.3013 8.37288 23.2546C10.1601 23.2079 11.8906 22.3655 13.1837 20.9127L21.3099 11.7833" stroke="#121212" stroke-width="3" stroke-linecap="round" stroke-linejoin="round"/>
</svg>
