<svg width="131" height="153" viewBox="0 0 131 153" fill="none" xmlns="http://www.w3.org/2000/svg">
<path fill-rule="evenodd" clip-rule="evenodd" d="M0 63.7905C0 25.0494 31.1125 0 65.5 0C99.8875 0 131 25.0494 131 63.7905C131 88.5288 110.941 117.623 70.9856 151.075C67.8744 153.642 63.2075 153.642 60.0962 151.075C20.0594 117.623 0 88.5288 0 63.7905ZM81.7005 39.9386C84.2853 37.3538 88.4761 37.3538 91.061 39.9386C93.6458 42.5234 93.6458 46.7143 91.061 49.2991L74.8603 65.4999L91.0612 81.7009C93.6461 84.2857 93.6461 88.4766 91.0612 91.0614C88.4764 93.6462 84.2856 93.6462 81.7008 91.0614L65.4999 74.8603L49.299 91.0613C46.7142 93.6461 42.5234 93.6461 39.9386 91.0613C37.3538 88.4764 37.3538 84.2856 39.9386 81.7008L56.1394 65.4999L39.9389 49.2992C37.3541 46.7144 37.3541 42.5236 39.9389 39.9387C42.5237 37.3539 46.7145 37.3539 49.2993 39.9387L65.4999 56.1394L81.7005 39.9386Z" fill="#946EDB"/>
</svg>
