<svg width="131" height="153" viewBox="0 0 131 153" fill="none" xmlns="http://www.w3.org/2000/svg">
<path d="M65.5 0C31.1125 0 0 25.0494 0 63.7905C0 88.5288 20.0594 117.623 60.0963 151.075C63.2075 153.642 67.8744 153.642 70.9856 151.075C110.941 117.623 131 88.5288 131 63.7905C131 25.0494 99.8875 0 65.5 0ZM65.5819 108.911C60.7513 108.911 56.985 105.254 56.985 100.742C56.985 96.1525 60.8331 92.6518 65.5819 92.6518C70.4125 92.6518 74.0969 96.1525 74.0969 100.742C74.0969 105.254 70.4944 108.911 65.5819 108.911ZM86.1325 60.9122C80.9744 68.1469 76.0619 70.3252 73.36 74.9928C72.705 76.0819 72.2956 77.0154 72.05 78.8046C71.6406 81.8386 69.1025 84.0946 65.9094 84.0946H65.6638C62.0613 84.0946 59.1956 81.1384 59.5231 77.7155C59.7688 75.6151 60.26 73.2813 61.57 71.1809C64.9269 65.502 71.2312 62.1569 74.9156 57.1781C78.8456 51.8881 76.635 42.0862 65.5819 42.0862C60.5875 42.0862 57.3125 44.5756 55.2656 47.5317C53.71 49.7877 50.5987 50.5657 47.9787 49.4765C44.54 48.0763 43.0663 44.031 45.195 41.1527C49.3706 35.396 56.33 31.1173 65.5 31.1173C75.5706 31.1173 82.53 35.4738 86.0506 40.9193C88.9981 45.6647 90.7994 54.3775 86.1325 60.9122Z" fill="#946EDB"/>
</svg>
