<svg width="30" height="26" viewBox="0 0 30 26" fill="none" xmlns="http://www.w3.org/2000/svg">
<path fill-rule="evenodd" clip-rule="evenodd" d="M23.0721 12.4322V2C23.0721 0.895431 22.1767 0 21.0721 0H17.631L23.0721 12.4322ZM0.333147 8.12025C-0.114524 7.11046 0.352105 5.95473 1.37539 5.53885L13.1532 0.752126C14.1765 0.336244 15.3689 0.817696 15.8166 1.82748L23.1328 18.3302C23.5805 19.34 23.1138 20.4957 22.0906 20.9116L10.3127 25.6983C9.28946 26.1142 8.09701 25.6327 7.64934 24.6229L0.333147 8.12025ZM29.6552 6.23001L25.1672 16.1873L25.4049 2.31201L28.6289 3.64318C29.6497 4.06465 30.1092 5.22281 29.6552 6.23001Z" fill="#121212"/>
</svg>
