<svg width="19" height="20" viewBox="0 0 19 20" fill="none" xmlns="http://www.w3.org/2000/svg">
<path d="M1 10C1 10.252 1.11194 10.4936 1.3112 10.6718C1.51046 10.8499 1.78071 10.95 2.0625 10.95H10.1269L7.68313 13.1255C7.58354 13.2138 7.50449 13.3189 7.45055 13.4347C7.39661 13.5504 7.36884 13.6746 7.36884 13.8C7.36884 13.9254 7.39661 14.0496 7.45055 14.1653C7.50449 14.2811 7.58354 14.3862 7.68313 14.4745C7.7819 14.5635 7.89941 14.6342 8.02889 14.6824C8.15836 14.7307 8.29724 14.7555 8.4375 14.7555C8.57776 14.7555 8.71664 14.7307 8.84611 14.6824C8.97559 14.6342 9.0931 14.5635 9.19188 14.4745L13.4419 10.6745C13.5386 10.5842 13.6144 10.4776 13.665 10.361C13.7713 10.1297 13.7713 9.87029 13.665 9.639C13.6144 9.52239 13.5386 9.41585 13.4419 9.3255L9.19188 5.5255C9.09281 5.43692 8.9752 5.36666 8.84577 5.31872C8.71633 5.27079 8.5776 5.24611 8.4375 5.24611C8.2974 5.24611 8.15867 5.27079 8.02923 5.31872C7.8998 5.36666 7.78219 5.43692 7.68313 5.5255C7.58406 5.61408 7.50548 5.71923 7.45186 5.83496C7.39825 5.95069 7.37065 6.07473 7.37065 6.2C7.37065 6.32527 7.39825 6.44931 7.45186 6.56504C7.50548 6.68077 7.58406 6.78592 7.68313 6.8745L10.1269 9.05H2.0625C1.78071 9.05 1.51046 9.15009 1.3112 9.32825C1.11194 9.50641 1 9.74804 1 10ZM14.8125 0.5H4.1875C3.34212 0.5 2.53137 0.800267 1.9336 1.33475C1.33583 1.86922 1 2.59413 1 3.35V6.2C1 6.45196 1.11194 6.69359 1.3112 6.87175C1.51046 7.04991 1.78071 7.15 2.0625 7.15C2.34429 7.15 2.61454 7.04991 2.8138 6.87175C3.01306 6.69359 3.125 6.45196 3.125 6.2V3.35C3.125 3.09804 3.23694 2.85641 3.4362 2.67825C3.63546 2.50009 3.90571 2.4 4.1875 2.4H14.8125C15.0943 2.4 15.3645 2.50009 15.5638 2.67825C15.7631 2.85641 15.875 3.09804 15.875 3.35V16.65C15.875 16.902 15.7631 17.1436 15.5638 17.3218C15.3645 17.4999 15.0943 17.6 14.8125 17.6H4.1875C3.90571 17.6 3.63546 17.4999 3.4362 17.3218C3.23694 17.1436 3.125 16.902 3.125 16.65V13.8C3.125 13.548 3.01306 13.3064 2.8138 13.1282C2.61454 12.9501 2.34429 12.85 2.0625 12.85C1.78071 12.85 1.51046 12.9501 1.3112 13.1282C1.11194 13.3064 1 13.548 1 13.8V16.65C1 17.4059 1.33583 18.1308 1.9336 18.6653C2.53137 19.1997 3.34212 19.5 4.1875 19.5H14.8125C15.6579 19.5 16.4686 19.1997 17.0664 18.6653C17.6642 18.1308 18 17.4059 18 16.65V3.35C18 2.59413 17.6642 1.86922 17.0664 1.33475C16.4686 0.800267 15.6579 0.5 14.8125 0.5Z" fill="#EB5050"/>
</svg>
