<svg width="19" height="19" viewBox="0 0 19 19" fill="none" xmlns="http://www.w3.org/2000/svg">
<path d="M1 9.5C1 9.75196 1.11194 9.99359 1.3112 10.1718C1.51046 10.3499 1.78071 10.45 2.0625 10.45H10.1269L7.68313 12.6255C7.58354 12.7138 7.50449 12.8189 7.45055 12.9347C7.39661 13.0504 7.36884 13.1746 7.36884 13.3C7.36884 13.4254 7.39661 13.5496 7.45055 13.6653C7.50449 13.7811 7.58354 13.8862 7.68313 13.9745C7.7819 14.0635 7.89941 14.1342 8.02889 14.1824C8.15836 14.2307 8.29724 14.2555 8.4375 14.2555C8.57776 14.2555 8.71664 14.2307 8.84611 14.1824C8.97559 14.1342 9.0931 14.0635 9.19188 13.9745L13.4419 10.1745C13.5386 10.0842 13.6144 9.97761 13.665 9.861C13.7713 9.62971 13.7713 9.37029 13.665 9.139C13.6144 9.02239 13.5386 8.91585 13.4419 8.8255L9.19188 5.0255C9.09281 4.93692 8.9752 4.86666 8.84577 4.81872C8.71633 4.77079 8.5776 4.74611 8.4375 4.74611C8.2974 4.74611 8.15867 4.77079 8.02923 4.81872C7.8998 4.86666 7.78219 4.93692 7.68313 5.0255C7.58406 5.11408 7.50548 5.21923 7.45186 5.33496C7.39825 5.45069 7.37065 5.57473 7.37065 5.7C7.37065 5.82527 7.39825 5.94931 7.45186 6.06504C7.50548 6.18077 7.58406 6.28592 7.68313 6.3745L10.1269 8.55H2.0625C1.78071 8.55 1.51046 8.65009 1.3112 8.82825C1.11194 9.00641 1 9.24804 1 9.5ZM14.8125 0H4.1875C3.34212 0 2.53137 0.300267 1.9336 0.834746C1.33583 1.36922 1 2.09413 1 2.85V5.7C1 5.95196 1.11194 6.19359 1.3112 6.37175C1.51046 6.54991 1.78071 6.65 2.0625 6.65C2.34429 6.65 2.61454 6.54991 2.8138 6.37175C3.01306 6.19359 3.125 5.95196 3.125 5.7V2.85C3.125 2.59804 3.23694 2.35641 3.4362 2.17825C3.63546 2.00009 3.90571 1.9 4.1875 1.9H14.8125C15.0943 1.9 15.3645 2.00009 15.5638 2.17825C15.7631 2.35641 15.875 2.59804 15.875 2.85V16.15C15.875 16.402 15.7631 16.6436 15.5638 16.8218C15.3645 16.9999 15.0943 17.1 14.8125 17.1H4.1875C3.90571 17.1 3.63546 16.9999 3.4362 16.8218C3.23694 16.6436 3.125 16.402 3.125 16.15V13.3C3.125 13.048 3.01306 12.8064 2.8138 12.6282C2.61454 12.4501 2.34429 12.35 2.0625 12.35C1.78071 12.35 1.51046 12.4501 1.3112 12.6282C1.11194 12.8064 1 13.048 1 13.3V16.15C1 16.9059 1.33583 17.6308 1.9336 18.1653C2.53137 18.6997 3.34212 19 4.1875 19H14.8125C15.6579 19 16.4686 18.6997 17.0664 18.1653C17.6642 17.6308 18 16.9059 18 16.15V2.85C18 2.09413 17.6642 1.36922 17.0664 0.834746C16.4686 0.300267 15.6579 0 14.8125 0Z" fill="#121212"/>
</svg>
