<svg width="17" height="17" viewBox="0 0 17 17" fill="none" xmlns="http://www.w3.org/2000/svg">
<path fill-rule="evenodd" clip-rule="evenodd" d="M15.991 3.13207C16.5768 2.54635 16.5769 1.5966 15.9912 1.01075C15.4055 0.424897 14.4558 0.424788 13.8699 1.01051L8.50083 6.37836L3.13183 1.01059C2.54597 0.424867 1.59623 0.424975 1.01051 1.01083C0.424788 1.59668 0.424897 2.54643 1.01075 3.13215L6.37926 8.49944L1.01075 13.8667C0.424897 14.4524 0.424788 15.4022 1.01051 15.988C1.59623 16.5739 2.54597 16.574 3.13183 15.9883L8.50083 10.6205L13.8699 15.9884C14.4558 16.5741 15.4055 16.574 15.9912 15.9881C16.5769 15.4023 16.5768 14.4525 15.991 13.8668L10.6224 8.49944L15.991 3.13207Z" fill="#EB5050"/>
</svg>
