<svg width="28" height="28" viewBox="0 0 28 28" fill="none" xmlns="http://www.w3.org/2000/svg">
<path fill-rule="evenodd" clip-rule="evenodd" d="M3.70628 26.3533C3.70628 26.3533 1.64746 26.3533 1.64746 24.2945C1.64746 22.2357 3.70628 16.0592 14.0004 16.0592C24.2945 16.0592 26.3533 22.2357 26.3533 24.2945C26.3533 26.3533 24.2945 26.3533 24.2945 26.3533H3.70628ZM14.0004 14.0004C15.6385 14.0004 17.2095 13.3497 18.3678 12.1914C19.5261 11.033 20.1769 9.46203 20.1769 7.82393C20.1769 6.18583 19.5261 4.61482 18.3678 3.45651C17.2095 2.29819 15.6385 1.64746 14.0004 1.64746C12.3623 1.64746 10.7913 2.29819 9.63298 3.45651C8.47467 4.61482 7.82393 6.18583 7.82393 7.82393C7.82393 9.46203 8.47467 11.033 9.63298 12.1914C10.7913 13.3497 12.3623 14.0004 14.0004 14.0004Z" fill="#121212"/>
</svg>
