<svg width="15" height="15" viewBox="0 0 15 15" fill="none" xmlns="http://www.w3.org/2000/svg">
<path d="M14.5312 3.75001V4.21876C14.5312 4.28092 14.5066 4.34053 14.4626 4.38449C14.4186 4.42844 14.359 4.45313 14.2969 4.45313H13.5938V4.8047C13.5938 4.99885 13.4363 5.15626 13.2422 5.15626H1.75781C1.56366 5.15626 1.40625 4.99885 1.40625 4.8047V4.45313H0.703125C0.640965 4.45313 0.581351 4.42844 0.537397 4.38449C0.493443 4.34053 0.46875 4.28092 0.46875 4.21876V3.75001C0.46875 3.70364 0.482504 3.65831 0.508272 3.61976C0.534039 3.58122 0.570661 3.55118 0.613506 3.53345L7.41038 0.95532C7.46776 0.93156 7.53224 0.93156 7.58962 0.95532L14.3865 3.53345C14.4293 3.55118 14.466 3.58122 14.4917 3.61976C14.5175 3.65831 14.5312 3.70364 14.5312 3.75001ZM13.8281 12.6563H1.17188C0.783545 12.6563 0.46875 12.9711 0.46875 13.3594V13.8281C0.46875 13.8903 0.493443 13.9499 0.537397 13.9939C0.581351 14.0378 0.640965 14.0625 0.703125 14.0625H14.2969C14.359 14.0625 14.4186 14.0378 14.4626 13.9939C14.5066 13.9499 14.5312 13.8903 14.5312 13.8281V13.3594C14.5312 12.9711 14.2165 12.6563 13.8281 12.6563ZM2.8125 5.62501V11.25H1.75781C1.56366 11.25 1.40625 11.4074 1.40625 11.6016V12.1875H13.5938V11.6016C13.5938 11.4074 13.4363 11.25 13.2422 11.25H12.1875V5.62501H10.3125V11.25H8.4375V5.62501H6.5625V11.25H4.6875V5.62501H2.8125Z" fill="#121212"/>
</svg>
