<svg width="18" height="18" viewBox="0 0 18 18" fill="none" xmlns="http://www.w3.org/2000/svg">
<path d="M10.2726 9L12.8187 6.4548C12.9023 6.37118 12.9686 6.27191 13.0139 6.16266C13.0592 6.0534 13.0825 5.93631 13.0825 5.81805C13.0825 5.69979 13.0592 5.5827 13.0139 5.47344C12.9686 5.36419 12.9023 5.26492 12.8187 5.1813C12.7351 5.09768 12.6358 5.03135 12.5266 4.9861C12.4173 4.94084 12.3002 4.91755 12.1819 4.91755C12.0637 4.91755 11.9466 4.94084 11.8373 4.9861C11.7281 5.03135 11.6288 5.09768 11.5452 5.1813L9 7.7274L6.4548 5.1813C6.28592 5.01242 6.05688 4.91755 5.81805 4.91755C5.57922 4.91755 5.35018 5.01242 5.1813 5.1813C5.01242 5.35018 4.91755 5.57922 4.91755 5.81805C4.91755 5.93631 4.94084 6.0534 4.9861 6.16266C5.03135 6.27191 5.09768 6.37118 5.1813 6.4548L7.7274 9L5.1813 11.5452C5.01242 11.7141 4.91755 11.9431 4.91755 12.1819C4.91755 12.4208 5.01242 12.6498 5.1813 12.8187C5.35018 12.9876 5.57922 13.0825 5.81805 13.0825C6.05688 13.0825 6.28592 12.9876 6.4548 12.8187L9 10.2726L11.5452 12.8187C11.7141 12.9876 11.9431 13.0825 12.1819 13.0825C12.4208 13.0825 12.6498 12.9876 12.8187 12.8187C12.9876 12.6498 13.0825 12.4208 13.0825 12.1819C13.0825 11.9431 12.9876 11.7141 12.8187 11.5452L10.2726 9ZM9 18C4.0293 18 0 13.9707 0 9C0 4.0293 4.0293 0 9 0C13.9707 0 18 4.0293 18 9C18 13.9707 13.9707 18 9 18Z" fill="#946EDB"/>
</svg>
