<svg width="23" height="23" viewBox="0 0 23 23" fill="none" xmlns="http://www.w3.org/2000/svg">
<path d="M8.79825 22.6947C9.68503 22.8976 10.5928 23 11.5041 23C12.4135 22.9991 13.3197 22.896 14.204 22.6929C14.4365 22.6392 14.6461 22.5181 14.8043 22.3461C14.9624 22.174 15.0614 21.9594 15.0878 21.7315L15.2905 19.9656C15.3247 19.6498 15.4754 19.3561 15.7153 19.1373C15.9553 18.9186 16.2688 18.7892 16.5994 18.7724C16.8194 18.7632 17.0382 18.8029 17.2397 18.8874L18.9227 19.5953C19.0691 19.6584 19.2275 19.6915 19.388 19.6925C19.5484 19.6935 19.7073 19.6623 19.8545 19.601C20.0026 19.5406 20.1351 19.4509 20.2442 19.3376C21.4817 18.0584 22.4056 16.5301 22.9483 14.8645C23.0193 14.6435 23.0171 14.4069 22.9419 14.1872C22.8668 13.9675 22.7223 13.7756 22.5286 13.638L21.0332 12.5799C20.8551 12.4558 20.7102 12.2931 20.6102 12.105C20.5103 11.9169 20.4582 11.7088 20.4582 11.4977C20.4582 11.2866 20.5103 11.0785 20.6102 10.8904C20.7102 10.7023 20.8551 10.5396 21.0332 10.4155L22.5238 9.35974C22.7181 9.22189 22.8628 9.02949 22.938 8.80922C23.0132 8.58894 23.0151 8.35169 22.9435 8.13033C22.4006 6.46451 21.4756 4.93645 20.2364 3.65833C20.0722 3.49003 19.8576 3.37475 19.6222 3.3284C19.3868 3.28205 19.1422 3.30692 18.9221 3.39957L17.2397 4.11031C17.0658 4.18563 16.8764 4.22531 16.6845 4.22531C16.3391 4.22466 16.0062 4.10177 15.7495 3.88019C15.4928 3.65862 15.3304 3.35397 15.2935 3.02465L15.0896 1.26506C15.0635 1.03412 14.9628 0.816776 14.8015 0.643451C14.6403 0.470127 14.4265 0.349496 14.1903 0.29844C13.3103 0.110038 12.4123 0.0100185 11.5107 0C10.603 0.0100475 9.69883 0.110254 8.81264 0.299015C8.57663 0.34978 8.36305 0.470023 8.2018 0.642926C8.04054 0.815829 7.93966 1.03275 7.91328 1.26334L7.70942 3.02408C7.67096 3.35392 7.507 3.65857 7.24895 3.87972C6.98559 4.09428 6.65365 4.21602 6.30821 4.22474C6.11768 4.22461 5.92925 4.18663 5.7548 4.11318L4.07598 3.40245C3.85521 3.30896 3.60956 3.28375 3.37316 3.33033C3.13676 3.37691 2.92137 3.49297 2.75691 3.66236C1.51942 4.94076 0.595529 6.46829 0.0528176 8.13321C-0.0188762 8.35448 -0.0169891 8.59166 0.0582174 8.81185C0.133424 9.03205 0.278221 9.22434 0.472522 9.36204L1.96427 10.4178C2.23076 10.6067 2.41908 10.8798 2.49598 11.1889C2.57289 11.4981 2.53343 11.8233 2.38457 12.1072C2.28558 12.2955 2.14181 12.4588 1.96487 12.5839L0.471922 13.6414C0.27779 13.779 0.133094 13.9711 0.057892 14.191C-0.0173102 14.411 -0.0192932 14.648 0.052218 14.8691C0.593969 16.5356 1.51794 18.0646 2.75631 19.344C2.91991 19.5133 3.13451 19.6294 3.3702 19.6762C3.6059 19.723 3.85094 19.6981 4.07119 19.605L5.76079 18.8937C5.93527 18.8201 6.12354 18.7822 6.3142 18.7822H6.319C6.66306 18.7826 6.99494 18.9044 7.25145 19.1243C7.50795 19.3442 7.67117 19.6469 7.71002 19.9748L7.91268 21.7326C7.93907 21.9609 8.03829 22.1758 8.19679 22.348C8.35529 22.5202 8.56534 22.6412 8.79825 22.6947ZM11.5 15.0939C10.5061 15.0939 9.55293 14.7153 8.85017 14.0413C8.1474 13.3673 7.75259 12.4532 7.75259 11.5C7.75259 10.5468 8.1474 9.6327 8.85017 8.95871C9.55293 8.28471 10.5061 7.90607 11.5 7.90607C12.4938 7.90607 13.447 8.28471 14.1497 8.95871C14.8525 9.6327 15.2473 10.5468 15.2473 11.5C15.2473 12.4532 14.8525 13.3673 14.1497 14.0413C13.447 14.7153 12.4938 15.0939 11.5 15.0939Z" fill="#121212"/>
</svg>
