<svg width="143" height="143" viewBox="0 0 143 143" fill="none" xmlns="http://www.w3.org/2000/svg">
<path d="M53.3389 16.6989C62.4909 6.53777 76.8338 0 92.9499 0C120.592 0 143 19.2338 143 42.9645C143 57.2073 134.92 69.8317 122.494 77.6512C122.184 77.8411 121.869 78.0225 121.55 78.1954V107.196C121.55 108.622 121.125 110.015 120.329 111.198C119.534 112.38 118.404 113.298 117.085 113.833C115.765 114.368 114.316 114.497 112.923 114.203C111.53 113.908 110.257 113.204 109.266 112.18L101.115 103.774C108.759 94.7224 113.256 83.6089 113.256 71.6004C113.256 42.4776 86.8152 18.6466 53.3389 16.6989Z" fill="#946EDB"/>
<path d="M59.9528 113.755L33.7337 140.823C32.7428 141.847 31.4694 142.551 30.0765 142.845C28.6837 143.14 27.2347 143.011 25.9153 142.476C24.5959 141.94 23.4661 141.023 22.6706 139.84C21.8751 138.658 21.4501 137.265 21.45 135.839V106.838C21.1306 106.665 20.8159 106.484 20.5062 106.294C8.07235 98.4742 0 85.8498 0 71.6071C0 47.8764 22.4081 28.6426 50.05 28.6426C77.6919 28.6426 100.1 47.8764 100.1 71.6071C100.1 91.1273 84.9349 107.611 64.1641 112.839C62.7721 113.196 61.3673 113.502 59.9528 113.755Z" fill="#946EDB"/>
</svg>
