<svg width="38" height="27" viewBox="0 0 38 27" fill="none" xmlns="http://www.w3.org/2000/svg">
<path fill-rule="evenodd" clip-rule="evenodd" d="M8.61917 20.7488C8.75616 20.7488 8.89099 20.7397 9.02311 20.7219L16.04 26.3376C18.0042 27.9096 20.9145 26.5112 20.9145 23.9954V3.00563C20.9145 0.489843 18.0042 -0.908593 16.04 0.663392L9.02218 6.27987C8.89036 6.26218 8.75584 6.25304 8.61917 6.25304H3C1.34315 6.25304 0 7.59619 0 9.25304V17.7488C0 19.4057 1.34315 20.7488 3 20.7488H8.61917ZM33.0575 1.91598C32.4598 1.34232 31.5103 1.36179 30.9366 1.95946C30.363 2.55713 30.3824 3.50668 30.9801 4.08033C36.329 9.21434 36.3499 17.8494 30.9869 22.9325C30.3856 23.5024 30.3602 24.4518 30.9301 25.0531C31.5 25.6543 32.4494 25.6798 33.0507 25.1099C39.6747 18.8315 39.6238 8.2185 33.0575 1.91598ZM28.7395 7.35711C28.2442 6.69305 27.3044 6.55623 26.6403 7.05152C25.9762 7.54681 25.8394 8.48665 26.3347 9.15071C27.0777 10.1469 27.5306 11.7564 27.5306 13.5097C27.5306 15.2629 27.0777 16.8725 26.3347 17.8686C25.8394 18.5327 25.9762 19.4725 26.6403 19.9678C27.3044 20.4631 28.2442 20.3263 28.7395 19.6622C29.9879 17.9885 30.5306 15.6772 30.5306 13.5097C30.5306 11.3422 29.9879 9.03086 28.7395 7.35711Z" fill="white"/>
</svg>
