<svg width="14" height="9" viewBox="0 0 14 9" fill="none" xmlns="http://www.w3.org/2000/svg">
<path opacity="0.6" fill-rule="evenodd" clip-rule="evenodd" d="M2.88889 6.91249C2.93361 6.91249 2.97765 6.90956 3.02082 6.90387L5.37724 8.77946C6.0324 9.30093 7 8.8344 7 7.99704V1.00187C7 0.164518 6.0324 -0.302011 5.37724 0.219459L3.01985 2.09582C2.97699 2.09021 2.93328 2.08732 2.88889 2.08732H1C0.447715 2.08732 0 2.53503 0 3.08732V5.91249C0 6.46478 0.447716 6.91249 1 6.91249H2.88889ZM9.13966 3.07889C8.9552 2.89266 8.9552 2.59073 9.13966 2.40451C9.32413 2.21828 9.6232 2.21828 9.80767 2.40451L11.5013 4.11428L13.1943 2.40506C13.3788 2.21884 13.6779 2.21884 13.8623 2.40506C14.0468 2.59129 14.0468 2.89322 13.8623 3.07944L12.1693 4.78866L13.8157 6.45079C14.0001 6.63701 14.0001 6.93894 13.8157 7.12516C13.6312 7.31139 13.3321 7.31139 13.1477 7.12516L11.5013 5.46303L9.85431 7.12572C9.66984 7.31194 9.37077 7.31194 9.18631 7.12572C9.00184 6.93949 9.00184 6.63756 9.18631 6.45134L10.8333 4.78866L9.13966 3.07889Z" fill="#121212"/>
</svg>
