<svg width="20" height="20" viewBox="0 0 20 20" fill="none" xmlns="http://www.w3.org/2000/svg">
<path d="M20 4.39024C20 4.6292 19.9053 4.85984 19.734 5.03841C19.5627 5.21698 19.3266 5.33107 19.0705 5.35902L18.9474 5.36585H18.0579L16.7621 17.5805C16.6916 18.2433 16.3575 18.858 15.8251 19.3052C15.2926 19.7524 14.5996 20.0001 13.8811 20H6.11895C5.40037 20.0001 4.70745 19.7524 4.17495 19.3052C3.64245 18.858 3.30845 18.2433 3.2379 17.5805L1.94211 5.36585H1.05263C0.773456 5.36585 0.505715 5.26307 0.308309 5.0801C0.110902 4.89714 0 4.64899 0 4.39024C0 4.1315 0.110902 3.88335 0.308309 3.70038C0.505715 3.51742 0.773456 3.41463 1.05263 3.41463H6.31579C6.31579 2.96622 6.41108 2.52219 6.59623 2.10791C6.78138 1.69363 7.05276 1.3172 7.39487 1.00012C7.73698 0.683045 8.14313 0.431525 8.59011 0.259924C9.0371 0.0883221 9.51618 0 10 0C10.4838 0 10.9629 0.0883221 11.4099 0.259924C11.8569 0.431525 12.263 0.683045 12.6051 1.00012C12.9472 1.3172 13.2186 1.69363 13.4038 2.10791C13.5889 2.52219 13.6842 2.96622 13.6842 3.41463H18.9474C19.2265 3.41463 19.4943 3.51742 19.6917 3.70038C19.8891 3.88335 20 4.1315 20 4.39024ZM12.3684 7.56098C12.1776 7.56098 11.9933 7.62502 11.8495 7.74124C11.7058 7.85745 11.6123 8.018 11.5863 8.19317L11.5789 8.29268V15.122L11.5863 15.2215C11.6123 15.3966 11.7058 15.5571 11.8496 15.6733C11.9934 15.7894 12.1777 15.8534 12.3684 15.8534C12.5592 15.8534 12.7435 15.7894 12.8872 15.6733C13.031 15.5571 13.1245 15.3966 13.1505 15.2215L13.1579 15.122V8.29268L13.1505 8.19317C13.1246 8.018 13.0311 7.85745 12.8873 7.74124C12.7435 7.62502 12.5592 7.56098 12.3684 7.56098ZM7.63158 7.56098C7.4408 7.56098 7.25648 7.62502 7.11271 7.74124C6.96893 7.85745 6.87542 8.018 6.84947 8.19317L6.84211 8.29268V15.122L6.84947 15.2215C6.87547 15.3966 6.969 15.5571 7.11278 15.6733C7.25655 15.7894 7.44084 15.8534 7.63158 15.8534C7.82232 15.8534 8.00661 15.7894 8.15038 15.6733C8.29415 15.5571 8.38769 15.3966 8.41368 15.2215L8.42105 15.122V8.29268L8.41368 8.19317C8.38774 8.018 8.29423 7.85745 8.15045 7.74124C8.00668 7.62502 7.82236 7.56098 7.63158 7.56098ZM10 1.95122C9.58124 1.95122 9.17963 2.1054 8.88352 2.37984C8.58741 2.65429 8.42105 3.02651 8.42105 3.41463H11.5789C11.5789 3.02651 11.4126 2.65429 11.1165 2.37984C10.8204 2.1054 10.4188 1.95122 10 1.95122Z" fill="#121212"/>
</svg>
