<svg width="30" height="29" viewBox="0 0 30 29" fill="none" xmlns="http://www.w3.org/2000/svg">
<path d="M30 6.36585C30 6.71234 29.858 7.04677 29.601 7.3057C29.344 7.56462 28.9899 7.73005 28.6058 7.77059L28.4211 7.78049H27.0868L25.1432 25.4917C25.0373 26.4527 24.5363 27.3442 23.7376 27.9926C22.9388 28.641 21.8994 29.0001 20.8216 29H9.17842C8.10055 29.0001 7.06117 28.641 6.26242 27.9926C5.46368 27.3442 4.96267 26.4527 4.85684 25.4917L2.91316 7.78049H1.57895C1.16018 7.78049 0.758573 7.63145 0.462463 7.36615C0.166353 7.10086 0 6.74104 0 6.36585C0 5.99067 0.166353 5.63085 0.462463 5.36556C0.758573 5.10026 1.16018 4.95122 1.57895 4.95122H9.47368C9.47368 4.30102 9.61663 3.65718 9.89435 3.05647C10.1721 2.45576 10.5791 1.90994 11.0923 1.45018C11.6055 0.990415 12.2147 0.625711 12.8852 0.376889C13.5557 0.128067 14.2743 0 15 0C15.7257 0 16.4443 0.128067 17.1148 0.376889C17.7853 0.625711 18.3945 0.990415 18.9077 1.45018C19.4209 1.90994 19.8279 2.45576 20.1057 3.05647C20.3834 3.65718 20.5263 4.30102 20.5263 4.95122H28.4211C28.8398 4.95122 29.2414 5.10026 29.5375 5.36556C29.8336 5.63085 30 5.99067 30 6.36585ZM18.5526 10.9634C18.2665 10.9634 17.99 11.0563 17.7743 11.2248C17.5587 11.3933 17.4184 11.6261 17.3795 11.8801L17.3684 12.0244V21.9268L17.3795 22.0711C17.4185 22.3251 17.5588 22.5578 17.7744 22.7262C17.9901 22.8947 18.2665 22.9875 18.5526 22.9875C18.8387 22.9875 19.1152 22.8947 19.3308 22.7262C19.5465 22.5578 19.6868 22.3251 19.7258 22.0711L19.7368 21.9268V12.0244L19.7258 11.8801C19.6869 11.6261 19.5466 11.3933 19.3309 11.2248C19.1153 11.0563 18.8388 10.9634 18.5526 10.9634V10.9634ZM11.4474 10.9634C11.1612 10.9634 10.8847 11.0563 10.6691 11.2248C10.4534 11.3933 10.3131 11.6261 10.2742 11.8801L10.2632 12.0244V21.9268L10.2742 22.0711C10.3132 22.3251 10.4535 22.5578 10.6692 22.7262C10.8848 22.8947 11.1613 22.9875 11.4474 22.9875C11.7335 22.9875 12.0099 22.8947 12.2256 22.7262C12.4412 22.5578 12.5815 22.3251 12.6205 22.0711L12.6316 21.9268V12.0244L12.6205 11.8801C12.5816 11.6261 12.4413 11.3933 12.2257 11.2248C12.01 11.0563 11.7335 10.9634 11.4474 10.9634V10.9634ZM15 2.82927C14.3719 2.82927 13.7694 3.05283 13.3253 3.45077C12.8811 3.84872 12.6316 4.38844 12.6316 4.95122H17.3684C17.3684 4.38844 17.1189 3.84872 16.6747 3.45077C16.2306 3.05283 15.6281 2.82927 15 2.82927Z" fill="white"/>
</svg>
